<?xml version="1.0" encoding="UTF-8"?><svg version="1.1" width="241px" height="369px" viewBox="0 0 241.0 369.0" xmlns="http://www.w3.org/2000/svg" xmlns:xlink="http://www.w3.org/1999/xlink"><defs><clipPath id="i0"><path d="M51.9996215,0 C80.730158,0 104,8.4386411 104,19.7472614 C104,31.0551169 80.730158,40 51.9996215,40 C23.269842,40 0,30.7178771 0,19.7472614 C0,8.86076433 23.269842,0 51.9996215,0 Z"></path></clipPath><clipPath id="i1"><path d="M120.495498,0 C152.404335,0 183.005845,12.5865151 205.568472,34.9906199 C228.131099,57.3947248 240.806159,87.7812137 240.806159,119.465499 C240.806159,119.465499 246.298152,160.908911 198.816358,228.527951 C190.661514,240.06849 177.407023,260.234384 164.106176,280.803908 L162.006394,284.053883 C141.019455,316.563205 120.580013,349 120.580013,349 C120.580013,349 100.140763,316.563205 79.1722821,284.053883 L77.0744073,280.803908 C63.786035,260.234384 50.5515868,240.06849 42.4289451,228.527951 C-5.22221456,160.908911 0.18500394,119.465499 0.18500394,119.465499 C0.18500394,87.7812137 12.8606578,57.3947248 35.4232848,34.9906199 C57.9859118,12.5865151 88.5874217,0 120.495498,0 Z"></path></clipPath><clipPath id="i2"><path d="M87.4999472,0 C98.9870777,-0.0109725812 110.363295,2.22907015 120.978312,6.59203815 C131.594089,10.9550821 141.240513,17.3555297 149.366816,25.4275218 C157.49312,33.4995138 163.939769,43.084843 168.33832,53.6352901 C172.736111,64.1857372 175,75.4949415 175,86.9165544 C175.016672,104.126444 169.899464,120.955816 160.294822,135.273466 C150.69018,149.591876 137.030363,160.756013 121.043644,167.353175 C105.056166,173.951097 87.4604438,175.685833 70.4815824,172.338643 C53.5027209,168.991453 37.9036672,160.711961 25.6581477,148.5483 C13.4126281,136.38388 5.07057541,120.882143 1.68748978,104.003403 C-1.69551988,87.1254215 0.0322976807,69.6276747 6.6525343,53.7256726 C13.272695,37.8238984 24.4877837,24.2313588 38.8789452,14.6679797 C53.2702586,5.10460055 70.1906247,0 87.4999472,0 Z"></path></clipPath><clipPath id="i3"><path d="M200.083654,0 C203.891817,11.8485236 205.823978,24.2162324 205.809558,36.6576763 C205.809558,36.6576763 211.283508,78.0967225 163.536525,145.540644 C142.146916,175.907284 85.557984,266 85.557984,266 C85.557984,266 65.8591391,234.638726 45.3304416,202.68581 L43.2406517,199.43552 C29.6479774,178.310959 15.9721851,157.383634 7.66314931,145.540644 C4.88420755,141.682101 2.35782788,137.823558 0,134.13225 C21.394315,144.172366 44.9894414,148.661837 68.592005,147.183337 C92.1953275,145.705597 115.03975,138.307777 135.003385,125.677815 C154.967021,113.047853 171.40177,95.5954722 182.779206,74.9428427 C194.157401,54.2902132 200.110216,31.1077904 200.083654,7.54909139 Z"></path></clipPath><clipPath id="i4"><path d="M70.1029768,1.73770316 C85.7729953,-1.42462966 102.015261,-0.25525657 117.06446,5.1188949 C132.113658,10.4929704 145.394505,19.8664022 155.464998,32.2208851 C165.535492,44.5757475 172.010844,59.4388712 174.185992,75.1962571 C176.361898,90.953643 174.155634,107.003296 167.806267,121.600722 C172.435097,109.946467 174.416712,97.4184451 173.609191,84.9131979 C172.802428,72.4071914 169.22626,60.2344457 163.137972,49.2641714 C157.048925,38.2937453 148.598788,28.7978649 138.390166,21.4555775 C128.181544,14.1133659 116.467926,9.10633264 104.087192,6.79278977 C91.706458,4.47932282 78.9652235,4.91650924 66.7734679,8.07314854 C54.5824713,11.2297119 43.2437743,17.027689 33.5681621,25.0521361 C23.8925499,33.0766591 16.1196227,43.1295934 10.8053864,54.4908228 C5.491226,65.8520521 2.76720651,78.2419107 2.828226,90.7729686 C2.80310479,112.91317 11.511816,134.179606 27.0823363,150 C15.5164101,139.01758 7.19688782,125.092748 3.0273742,109.736945 C-1.14213942,94.3819012 -1.00234103,78.1834572 3.43189398,62.9020496 C7.86612898,47.620642 16.4252514,33.8396667 28.1792452,23.0564435 C39.9332391,12.2732962 54.4329583,4.9001119 70.1029768,1.73770316 Z"></path></clipPath><clipPath id="i5"><path d="M47.3060714,1.79408319 L84.1119299,38.5369069 C86.5081446,40.9290178 86.5081446,44.8138059 84.1119299,47.2059168 C81.7157151,49.5980277 77.8242624,49.5980277 75.4280476,47.2059168 L42.9545455,14.7880297 L10.4810433,47.1867799 C8.08482854,49.5788908 4.1933758,49.5788908 1.79716106,47.1867799 C-0.599053685,44.794669 -0.599053685,40.9098809 1.79716106,38.51777 L38.6030195,1.7749463 L38.6221892,1.79408319 C41.0184039,-0.598027729 44.9098567,-0.598027729 47.3060714,1.79408319 Z"></path></clipPath></defs><g transform="translate(68.0 329.0)"><g clip-path="url(#i0)"><polygon points="0,0 104,0 104,40 0,40 0,0" stroke="none" fill="#ADAEAE" opacity="20%" style="mix-blend-mode:multiply"></polygon></g></g><g clip-path="url(#i1)"><polygon points="-9.57260637e-17,0 241,0 241,349 -9.57260637e-17,349 -9.57260637e-17,0" stroke="none" fill="#E14040"></polygon></g><g transform="translate(33.0 34.0)"><g clip-path="url(#i2)"><polygon points="8.89472124e-16,-4.01162658e-05 175.000041,-4.01162658e-05 175.000041,174 8.89472124e-16,174 8.89472124e-16,-4.01162658e-05" stroke="none" fill="#FFFFFF"></polygon></g></g><g transform="translate(34.0 82.0)"><g clip-path="url(#i3)"><polygon points="0,0 206,0 206,266 0,266 0,0" stroke="none" fill="#FF6060"></polygon></g></g><g transform="translate(33.0 34.0)"><g clip-path="url(#i4)"><polygon points="-3.24773307e-15,1.14364286e-15 175,1.14364286e-15 175,150 -3.24773307e-15,150 -3.24773307e-15,1.14364286e-15" stroke="none" fill="#FF6060"></polygon></g></g><g transform="translate(77.99999999999999 106.0)"><g clip-path="url(#i5)"><polygon points="0,0 85.9090909,0 85.9090909,49 0,49 0,0" stroke="none" fill="#FF6060"></polygon></g></g><g transform="translate(77.99999999999999 81.0)"><g clip-path="url(#i5)"><polygon points="0,0 85.9090909,0 85.9090909,49 0,49 0,0" stroke="none" fill="#FF6060"></polygon></g></g></svg>